<svg width="20" height="20" viewBox="0 0 20 20" fill="none" xmlns="http://www.w3.org/2000/svg">
<path d="M9.99102 1.66666C5.39102 1.66666 1.66602 5.39999 1.66602 9.99999C1.66602 14.6 5.39102 18.3333 9.99102 18.3333C14.5993 18.3333 18.3327 14.6 18.3327 9.99999C18.3327 5.39999 14.5993 1.66666 9.99102 1.66666ZM9.99935 16.6667C6.31602 16.6667 3.33268 13.6833 3.33268 9.99999C3.33268 6.31666 6.31602 3.33332 9.99935 3.33332C13.6827 3.33332 16.666 6.31666 16.666 9.99999C16.666 13.6833 13.6827 16.6667 9.99935 16.6667Z" fill="#656263"/>
<path d="M10.416 5.83334H9.16602V10.8333L13.541 13.4583L14.166 12.4333L10.416 10.2083V5.83334Z" fill="#656263"/>
</svg>
